<?xml version="1.0" standalone="no"?>
<!DOCTYPE svg PUBLIC "-//W3C//DTD SVG 20010904//EN"
 "http://www.w3.org/TR/2001/REC-SVG-20010904/DTD/svg10.dtd">
<svg version="1.0" xmlns="http://www.w3.org/2000/svg"
 width="700.000000pt" height="700.000000pt" viewBox="0 0 700.000000 700.000000"
 preserveAspectRatio="xMidYMid meet">
<metadata>
Created by potrace 1.11, written by Peter Selinger 2001-2013
</metadata>
<g transform="translate(0.000000,700.000000) scale(0.100000,-0.100000)"
fill="#000000" stroke="none">
<path d="M3028 5685 c-2 -1 -34 -5 -73 -9 -38 -4 -86 -11 -105 -16 -19 -5 -48
-11 -64 -14 -110 -19 -391 -138 -516 -219 -358 -230 -630 -565 -812 -1002 -51
-123 -88 -221 -248 -645 -61 -162 -115 -304 -119 -315 -5 -11 -26 -65 -46
-120 -21 -55 -43 -113 -50 -130 -7 -16 -76 -190 -153 -385 -128 -323 -263
-647 -357 -855 -20 -44 -48 -107 -62 -140 -46 -103 -226 -454 -301 -585 -39
-69 -74 -132 -77 -141 -5 -14 204 -15 2172 -13 1198 1 2194 5 2213 7 19 3 85
8 145 12 61 4 117 8 126 10 9 2 40 6 70 10 203 26 427 143 620 327 264 249
542 711 694 1151 20 56 38 109 42 117 22 53 27 90 12 91 -8 0 -93 2 -189 4
-96 1 -177 3 -178 4 -2 1 18 18 45 40 74 59 229 225 315 337 149 195 286 435
382 667 33 79 126 343 126 358 0 3 -53 6 -117 7 -65 0 -186 2 -270 2 l-151 1
132 132 c197 197 356 420 500 702 79 154 117 244 180 430 l51 150 -180 1
c-332 3 -1804 15 -2380 20 -1037 9 -1374 12 -1377 9z m15 -3182 c-7 -2 -19 -2
-25 0 -7 3 -2 5 12 5 14 0 19 -2 13 -5z m74 1 c-3 -3 -12 -4 -19 -1 -8 3 -5 6
6 6 11 1 17 -2 13 -5z m60 0 c-3 -3 -12 -4 -19 -1 -8 3 -5 6 6 6 11 1 17 -2
13 -5z m120 0 c-3 -3 -12 -4 -19 -1 -8 3 -5 6 6 6 11 1 17 -2 13 -5z m60 0
c-3 -3 -12 -4 -19 -1 -8 3 -5 6 6 6 11 1 17 -2 13 -5z"/>
</g>
</svg>
