<?xml version="1.0" encoding="utf-8"?>
<!-- Generator: Adobe Illustrator 23.1.0, SVG Export Plug-In . SVG Version: 6.00 Build 0)  -->
<svg version="1.1" id="레이어_1" xmlns="http://www.w3.org/2000/svg" xmlns:xlink="http://www.w3.org/1999/xlink" x="0px"
	 y="0px" viewBox="0 0 300 300" style="enable-background:new 0 0 300 300;" xml:space="preserve">
<style type="text/css">
	.st0{fill:#FFFFFF;}
</style>
<g>
	<path class="st0" d="M290.4,73.21l3.12-9.25l-130-1.11v-0.13l-26.13-0.09c-1.77,0-43.58,0.56-64.68,49.32
		c-1.65,3.82-4.53,11.46-8.51,22.03c-10.9,28.93-29.14,77.34-43.39,102.68l-5.93,10.55l76.02,0.01h26.9h51.99
		c31.45,0,40.54-2.12,43.74-3.75c28.35-10.83,43.58-54.6,44.22-56.47l3.17-9.27l-15.78-0.14c21.76-17.24,31.71-46.03,32.21-47.5
		l3.12-9.24l-22.19-0.21C279.97,103.4,289.9,74.68,290.4,73.21z M237.95,116.79c-0.31,0.11-7.91,2.74-35.53,2.73l-65.04-0.01l0,0
		l-0.06,13.93l123.84,1.16c-5.67,11.88-17.6,31.85-36.27,39.07c-0.31,0.11-7.91,2.74-35.53,2.73l-78.1-0.01l-0.06,13.93l130.47,1.16
		c-5.59,12.33-17.11,33.25-32.98,39.01l-1.28,0.47l-0.11,0.11c-2.1,0.56-10.58,2.21-37.54,2.21h-51.99h-26.9H37.53
		c13.62-27.4,29.06-68.36,38.76-94.1c3.77-9.99,6.74-17.89,8.26-21.39c17.5-40.44,51.41-41.21,52.8-41.23l10.7,0.04v0.05
		l126.16,1.07C268.54,89.61,256.61,109.58,237.95,116.79z"/>
</g>
</svg>
