<?xml version="1.0" encoding="utf-8"?>
<!-- Generator: Adobe Illustrator 23.0.3, SVG Export Plug-In . SVG Version: 6.00 Build 0)  -->
<svg version="1.1" id="레이어_1" xmlns="http://www.w3.org/2000/svg" xmlns:xlink="http://www.w3.org/1999/xlink" x="0px"
	 y="0px" viewBox="0 0 32 32" style="enable-background:new 0 0 32 32;" xml:space="preserve">
<style type="text/css">
	.st0{fill:#FFFFFF;}
	.st1{fill:#EE0900;}
	.st2{fill:#1CADF9;}
	.st3{fill:#CA6CDE;}
</style>
<g>
	<path class="st0" d="M15.3,7.6L15.3,7.6l-1.22-0.01c-0.16,0-4.02,0.09-6.01,4.69c-0.17,0.4-0.51,1.3-0.94,2.43
		c-1.1,2.93-2.86,7.59-4.41,10.7h6.07h3.06h5.91c3.07,0,4.03-0.19,4.27-0.25l0.01-0.01l0.15-0.05c1.81-0.66,3.12-3.03,3.75-4.44
		L11.1,20.53l0.01-1.58h8.88c3.14,0,4.01-0.3,4.04-0.31c2.12-0.82,3.48-3.09,4.12-4.44l-14.09-0.13l0.01-1.58l0,0h7.4
		c3.14,0,4.01-0.3,4.04-0.31c2.12-0.82,3.48-3.09,4.12-4.44L15.3,7.6z"/>
	<path class="st1" d="M25.52,12.16c2.12-0.82,3.48-3.09,4.12-4.44L20.9,7.65l-1.93,4.83h2.51C24.63,12.47,25.48,12.17,25.52,12.16z"
		/>
	<polygon class="st1" points="16.83,7.61 14.98,12.47 17.08,12.47 18.93,7.63 	"/>
	<path class="st2" d="M19.99,18.94c3.14,0,4.01-0.3,4.04-0.31c2.12-0.82,3.48-3.09,4.12-4.44l-6.92-0.06l-1.93,4.82h0.69V18.94z"/>
	<path class="st3" d="M22.05,25.16l0.01-0.01l0.15-0.05c1.81-0.66,3.12-3.03,3.75-4.44l-4.21-0.04l-1.9,4.76
		C21.3,25.32,21.86,25.21,22.05,25.16z"/>
	<path d="M31.49,7.2l0.35-1.05L17.05,6.03V6.02L14.09,6c-0.2,0-4.96,0.06-7.36,5.61c-0.19,0.43-0.52,1.3-0.97,2.51
		c-1.24,3.29-3.31,8.8-4.93,11.68L0.16,27h8.65h3.06h5.91c3.58,0,4.61-0.24,4.98-0.43c3.22-1.23,4.96-6.21,5.03-6.42l0.36-1.05
		l-1.79-0.02c2.48-1.96,3.61-5.24,3.66-5.4l0.35-1.05l-2.52-0.02C30.3,10.64,31.43,7.37,31.49,7.2z M25.52,12.16
		c-0.04,0.01-0.9,0.31-4.04,0.31h-2.51h-1.89h-2.11h-0.89l0,0l-0.01,1.58l7.17,0.07l6.92,0.06c-0.64,1.35-2,3.62-4.12,4.44
		c-0.04,0.01-0.9,0.31-4.04,0.31h-0.68h-8.2l-0.01,1.58l10.63,0.09l4.21,0.04c-0.64,1.4-1.95,3.78-3.75,4.44l-0.15,0.05l-0.01,0.01
		c-0.17,0.05-0.74,0.16-2.21,0.22c-0.55,0.02-1.23,0.04-2.06,0.04h-5.91H8.8H2.73c1.55-3.12,3.3-7.78,4.41-10.7
		c0.43-1.14,0.77-2.03,0.94-2.43c1.99-4.6,5.85-4.69,6.01-4.69h1.22v0.01l1.54,0.01l2.1,0.02l1.97,0.02l8.74,0.07
		C29,9.07,27.64,11.34,25.52,12.16z"/>
</g>
</svg>
